<?xml version="1.0" ?><svg data-name="Layer 1" id="Layer_1" viewBox="0 0 48 48" xmlns="http://www.w3.org/2000/svg"><defs><style>.cls-1{fill:none;stroke:#000;stroke-miterlimit:10;stroke-width:2px;}</style></defs><title/><rect class="cls-1" height="46" rx="10" ry="10" width="46" x="1" y="1"/><path class="cls-1" d="M34,13c0,5.52-10,16-10,16S14,18.52,14,13a10,10,0,0,1,20,0Z"/><path class="cls-1" d="M27.15,30h7.53A3.21,3.21,0,0,1,38,33.08v6.84A3.21,3.21,0,0,1,34.68,43H13.32A3.21,3.21,0,0,1,10,39.92V33.08A3.21,3.21,0,0,1,13.32,30h7.53"/><line class="cls-1" x1="11" x2="24" y1="37" y2="37"/><line class="cls-1" x1="24" x2="24" y1="37" y2="42"/><line class="cls-1" x1="30" x2="30" y1="31" y2="37"/><line class="cls-1" x1="24" x2="37" y1="37" y2="37"/></svg>