<svg xmlns="http://www.w3.org/2000/svg" width="60.002" height="31.734" viewBox="0 0 60.002 31.734">
  <g id="Box3" transform="translate(-5257.999 4179.986)">
    <path id="Path_513" data-name="Path 513" d="M19.985,27.942l30-7.928,30,7.928L79.97,28.99,49.986,36.928,20,29Z" transform="translate(5238.014 -4200)" fill="#efc75e"/>
    <path id="Path_514" data-name="Path 514" d="M19.986,35l29.977,7.935L79.986,35V50.871L49.877,58.806,19.986,50.871V35Z" transform="translate(5238.014 -4207.058)" fill="#e7bf55"/>
    <path id="Path_515" data-name="Path 515" d="M49.986,58.777V42.929l-.023.006L19.986,35V50.871l29.891,7.935Z" transform="translate(5238.014 -4207.058)" fill="#dbb551"/>
    <path id="Path_516" data-name="Path 516" d="M61.99,42.581v4.651l2.678.114,1.707-1.076,1.607.134V41Z" transform="translate(5238.014 -4209.882)" fill="#f1d999"/>
    <path id="Path_517" data-name="Path 517" d="M31.967,27.6l30.51,8.083,5.5-1.725-30-7.948Z" transform="translate(5238.014 -4202.824)" fill="#f7e3af"/>
    <path id="Path_518" data-name="Path 518" d="M43.979,60.717l-9.984-2.65c-.551-.147-1,.032-1,.4v3.312c0,.366.447.782,1,.928l9.984,2.65c.551.146,1-.032,1-.4V61.644C44.977,61.279,44.529,60.863,43.979,60.717Zm-2.5,2.65-5.99-1.591c-.275-.073-.5-.28-.5-.463s.224-.272.5-.2l5.99,1.59c.275.074.5.281.5.464s-.223.272-.5.2Zm1-1.06-6.988-1.855c-.275-.074-.5-.281-.5-.464s.224-.272.5-.2l6.988,1.856c.276.073.5.281.5.463S42.757,62.38,42.48,62.307Z" transform="translate(5238.014 -4217.897)" fill="#f2f2f2"/>
  </g>
</svg>
