<svg xmlns="http://www.w3.org/2000/svg" width="60.002" height="45.116" viewBox="0 0 60.002 45.116">
  <g id="Box4" transform="translate(-5257.999 4179.986)">
    <path id="Path_513" data-name="Path 513" d="M19.985,31.285l30-11.271,30,11.271-.017,1.49L49.986,44.06,20,32.793Z" transform="translate(5238.014 -4200)" fill="#efc75e"/>
    <path id="Path_514" data-name="Path 514" d="M19.986,35,49.963,46.281,79.986,35V57.564L49.877,68.845,19.986,57.564V35Z" transform="translate(5238.014 -4203.715)" fill="#e7bf55"/>
    <path id="Path_515" data-name="Path 515" d="M49.986,68.8V46.272l-.023.009L19.986,35V57.564L49.877,68.845Z" transform="translate(5238.014 -4203.715)" fill="#dbb551"/>
    <path id="Path_516" data-name="Path 516" d="M61.99,43.249v6.613l2.678.162,1.707-1.529,1.607.19V41Z" transform="translate(5238.014 -4205.201)" fill="#f1d999"/>
    <path id="Path_517" data-name="Path 517" d="M31.967,28.27l30.51,11.492,5.5-2.452-30-11.3Z" transform="translate(5238.014 -4201.486)" fill="#f7e3af"/>
    <path id="Path_518" data-name="Path 518" d="M43.979,61.856l-9.984-3.768c-.551-.208-1,.045-1,.565v4.709a1.568,1.568,0,0,0,1,1.319l9.984,3.768c.551.208,1-.046,1-.566V63.175A1.57,1.57,0,0,0,43.979,61.856Zm-2.5,3.767-5.99-2.262a.784.784,0,0,1-.5-.659c0-.26.224-.387.5-.283l5.99,2.261a.786.786,0,0,1,.5.66c0,.26-.223.387-.5.283Zm1-1.507-6.988-2.638a.786.786,0,0,1-.5-.66c0-.26.224-.387.5-.283l6.988,2.638a.783.783,0,0,1,.5.659C42.979,64.094,42.757,64.221,42.48,64.116Z" transform="translate(5238.014 -4209.42)" fill="#f2f2f2"/>
  </g>
</svg>
