<svg xmlns="http://www.w3.org/2000/svg" width="60.002" height="83.298" viewBox="0 0 60.002 83.298">
  <g id="Box5" transform="translate(-5257.999 4179.986)">
    <path id="Path_513" data-name="Path 513" d="M19.985,40.824l30-20.81,30,20.81-.017,2.751L49.986,64.409,20,43.608Z" transform="translate(5238.014 -4200)" fill="#efc75e"/>
    <path id="Path_514" data-name="Path 514" d="M19.986,35,49.963,55.828,79.986,35V76.659L49.877,97.488,19.986,76.659V35Z" transform="translate(5238.014 -4194.176)" fill="#e7bf55"/>
    <path id="Path_515" data-name="Path 515" d="M49.986,97.411v-41.6l-.023.017L19.986,35V76.659L49.877,97.488Z" transform="translate(5238.014 -4194.176)" fill="#dbb551"/>
    <path id="Path_516" data-name="Path 516" d="M61.99,45.155V57.363l2.678.3,1.707-2.823,1.607.351V41Z" transform="translate(5238.014 -4191.846)" fill="#f1d999"/>
    <path id="Path_517" data-name="Path 517" d="M31.967,30.182,62.477,51.4l5.5-4.527-30-20.861Z" transform="translate(5238.014 -4197.67)" fill="#f7e3af"/>
    <path id="Path_518" data-name="Path 518" d="M43.979,65.107,33.995,58.15c-.551-.385-1,.083-1,1.043v8.694a3.28,3.28,0,0,0,1,2.436l9.984,6.957c.551.383,1-.085,1-1.044V67.541A3.283,3.283,0,0,0,43.979,65.107Zm-2.5,6.956-5.99-4.176a1.639,1.639,0,0,1-.5-1.216c0-.48.224-.714.5-.522l5.99,4.174a1.644,1.644,0,0,1,.5,1.218c0,.48-.223.714-.5.522Zm1-2.783-6.988-4.87a1.644,1.644,0,0,1-.5-1.218c0-.48.224-.714.5-.522l6.988,4.871a1.637,1.637,0,0,1,.5,1.216C42.979,69.238,42.757,69.472,42.48,69.279Z" transform="translate(5238.014 -4185.232)" fill="#f2f2f2"/>
  </g>
</svg>
