<svg xmlns="http://www.w3.org/2000/svg" width="60.002" height="55.074" viewBox="0 0 60.002 55.074">
  <g id="Box6" transform="translate(-5385.999 4247.089)">
    <path id="Path_513" data-name="Path 513" d="M19.985,33.773l30-13.759,30,13.759-.017,1.819L49.986,49.367,20,35.614Z" transform="translate(5366.014 -4267.103)" fill="#efc75e"/>
    <path id="Path_514" data-name="Path 514" d="M19.986,35,49.963,48.771,79.986,35V62.544L49.877,76.315,19.986,62.544V35Z" transform="translate(5366.014 -4268.33)" fill="#e7bf55"/>
    <path id="Path_515" data-name="Path 515" d="M49.986,76.265V48.76l-.023.011L19.986,35V62.544L49.877,76.315Z" transform="translate(5366.014 -4268.33)" fill="#dbb551"/>
    <path id="Path_516" data-name="Path 516" d="M61.99,43.746v8.072l2.678.2,1.707-1.867,1.607.232V41Z" transform="translate(5366.014 -4268.821)" fill="#f1d999"/>
    <path id="Path_517" data-name="Path 517" d="M31.967,28.769,62.477,42.8l5.5-2.993-30-13.793Z" transform="translate(5366.014 -4267.594)" fill="#f7e3af"/>
    <path id="Path_518" data-name="Path 518" d="M43.979,62.7l-9.984-4.6c-.551-.254-1,.055-1,.69v5.748a1.912,1.912,0,0,0,1,1.61l9.984,4.6c.551.253,1-.056,1-.69V64.313A1.914,1.914,0,0,0,43.979,62.7Zm-2.5,4.6-5.99-2.761a.956.956,0,0,1-.5-.8c0-.318.224-.472.5-.345l5.99,2.76a.958.958,0,0,1,.5.805c0,.318-.223.472-.5.345Zm1-1.84-6.988-3.22a.958.958,0,0,1-.5-.805c0-.318.224-.472.5-.345l6.988,3.221a.955.955,0,0,1,.5.8C42.979,65.435,42.757,65.59,42.48,65.463Z" transform="translate(5366.014 -4270.214)" fill="#f2f2f2"/>
  </g>
</svg>
