<svg xmlns="http://www.w3.org/2000/svg" width="60.002" height="64.084" viewBox="0 0 60.002 64.084">
  <g id="Box7" transform="translate(-5257.999 4179.986)">
    <path id="Path_513" data-name="Path 513" d="M19.985,36.024l30-16.01,30,16.01L79.97,38.14,49.986,54.169,20,38.166Z" transform="translate(5238.014 -4200)" fill="#efc75e"/>
    <path id="Path_514" data-name="Path 514" d="M19.986,35,49.963,51.024,79.986,35V67.049L49.877,83.074,19.986,67.049V35Z" transform="translate(5238.014 -4198.976)" fill="#e7bf55"/>
    <path id="Path_515" data-name="Path 515" d="M49.986,83.015v-32l-.023.013L19.986,35V67.049L49.877,83.074Z" transform="translate(5238.014 -4198.976)" fill="#dbb551"/>
    <path id="Path_516" data-name="Path 516" d="M61.99,44.2v9.393l2.678.231,1.707-2.172,1.607.27V41Z" transform="translate(5238.014 -4198.566)" fill="#f1d999"/>
    <path id="Path_517" data-name="Path 517" d="M31.967,29.22l30.51,16.323,5.5-3.483-30-16.049Z" transform="translate(5238.014 -4199.59)" fill="#f7e3af"/>
    <path id="Path_518" data-name="Path 518" d="M43.979,63.471l-9.984-5.352c-.551-.3-1,.064-1,.8V65.61a2.287,2.287,0,0,0,1,1.874l9.984,5.352c.551.295,1-.065,1-.8V65.344A2.289,2.289,0,0,0,43.979,63.471Zm-2.5,5.351-5.99-3.212a1.143,1.143,0,0,1-.5-.936c0-.37.224-.549.5-.4l5.99,3.211a1.146,1.146,0,0,1,.5.937c0,.37-.223.549-.5.4Zm1-2.141-6.988-3.747a1.146,1.146,0,0,1-.5-.937c0-.37.224-.549.5-.4l6.988,3.748a1.142,1.142,0,0,1,.5.936C42.979,66.649,42.757,66.83,42.48,66.681Z" transform="translate(5238.014 -4197.404)" fill="#f2f2f2"/>
  </g>
</svg>
