<svg xmlns="http://www.w3.org/2000/svg" width="60.002" height="68.862" viewBox="0 0 60.002 68.862">
  <g id="Box8" transform="translate(-5257.999 4179.986)">
    <path id="Path_513" data-name="Path 513" d="M19.985,37.218l30-17.2,30,17.2-.017,2.274L49.986,56.716,20,39.519Z" transform="translate(5238.014 -4200)" fill="#efc75e"/>
    <path id="Path_514" data-name="Path 514" d="M19.986,35,49.963,52.218,79.986,35V69.439L49.877,86.659,19.986,69.439V35Z" transform="translate(5238.014 -4197.782)" fill="#e7bf55"/>
    <path id="Path_515" data-name="Path 515" d="M49.986,86.6V52.2l-.023.014L19.986,35V69.439l29.891,17.22Z" transform="translate(5238.014 -4197.782)" fill="#dbb551"/>
    <path id="Path_516" data-name="Path 516" d="M61.99,44.434V54.527l2.678.248,1.707-2.334,1.607.29V41Z" transform="translate(5238.014 -4196.895)" fill="#f1d999"/>
    <path id="Path_517" data-name="Path 517" d="M31.967,29.46,62.477,47l5.5-3.742-30-17.246Z" transform="translate(5238.014 -4199.113)" fill="#f7e3af"/>
    <path id="Path_518" data-name="Path 518" d="M43.979,63.878l-9.984-5.751c-.551-.318-1,.069-1,.862v7.187a2.51,2.51,0,0,0,1,2.014l9.984,5.751c.551.317,1-.07,1-.863V65.89A2.512,2.512,0,0,0,43.979,63.878Zm-2.5,5.75-5.99-3.452a1.254,1.254,0,0,1-.5-1.006c0-.4.224-.59.5-.432l5.99,3.451a1.258,1.258,0,0,1,.5,1.007c0,.4-.223.59-.5.432Zm1-2.3L35.492,63.3a1.258,1.258,0,0,1-.5-1.007c0-.4.224-.59.5-.432L42.48,65.89a1.253,1.253,0,0,1,.5,1.006C42.979,67.293,42.757,67.487,42.48,67.327Z" transform="translate(5238.014 -4194.377)" fill="#f2f2f2"/>
  </g>
</svg>
