<svg xmlns="http://www.w3.org/2000/svg" width="98.763" height="63.209" viewBox="0 0 98.763 63.209">
  <g id="Card_Envelop" data-name="Card Envelop" transform="translate(-5247.546 3993)">
    <rect id="Rectangle_1720" data-name="Rectangle 1720" width="98" height="63" transform="translate(5248 -3993)" fill="#e7bf55"/>
    <path id="_370078_email_mail_message_sms_communication_icon" data-name="370078_email_mail_message_sms_communication_icon" d="M101.962,96.359H7.218v63.209H105.98V96.359h-4.018Zm-3.95,3.951L59.857,138.464a4.72,4.72,0,0,1-6.516,0L15.18,100.31Zm-86.844,1.574,25.651,25.647L11.168,153.182Zm3.152,53.733,25.294-25.291,10.933,10.932a8.554,8.554,0,0,0,12.1,0l10.933-10.933,25.292,25.292Zm87.71-2.432L76.379,127.531l25.651-25.653v51.306Z" transform="translate(5240.328 -4089.359)" fill="#c28e03"/>
  </g>
</svg>
