<?xml version="1.0" ?><svg id="Outline" viewBox="0 0 512 512" xmlns="http://www.w3.org/2000/svg"><defs><style>.cls-1{fill:#231f20;}</style></defs><path class="cls-1" d="M235.8,240.72H99.36a8,8,0,0,1-8-8V96.28a8,8,0,0,1,8-8H235.8a8,8,0,0,1,8,8V232.72A8,8,0,0,1,235.8,240.72Zm-128.44-16H227.8V104.28H107.36Z"/><path class="cls-1" d="M235.8,424.87H99.36a8,8,0,0,1-8-8V280.42a8,8,0,0,1,8-8H235.8a8,8,0,0,1,8,8V416.87A8,8,0,0,1,235.8,424.87Zm-128.44-16H227.8V288.42H107.36Z"/><path class="cls-1" d="M167.58,142.42H137.5a8,8,0,0,1,0-16h30.08a8,8,0,1,1,0,16Z"/><path class="cls-1" d="M412.64,239.58H276.2a8,8,0,0,1-8-8V95.13a8,8,0,0,1,8-8H412.64a8,8,0,0,1,8,8V231.58A8,8,0,0,1,412.64,239.58Zm-128.44-16H404.64V103.13H284.2Z"/><path class="cls-1" d="M412.64,424.87H276.2a8,8,0,0,1-8-8V280.42a8,8,0,0,1,8-8H412.64a8,8,0,0,1,8,8V416.87A8,8,0,0,1,412.64,424.87Zm-128.44-16H404.64V288.42H284.2Z"/><path class="cls-1" d="M344.42,385.58H314.33a8,8,0,0,1,0-16h30.09a8,8,0,0,1,0,16Z"/></svg>