<svg xmlns="http://www.w3.org/2000/svg" width="300" height="157.895" viewBox="0 0 300 157.895">
  <g id="united-states-of-america-flag" transform="translate(-312 -717.552)">
    <rect id="_x35_9" width="300" height="157.895" transform="translate(312 717.552)" fill="#fff"/>
    <rect id="_x35_8" width="300" height="12.146" transform="translate(312 717.552)" fill="#b22234"/>
    <rect id="_x35_7" width="300" height="12.146" transform="translate(312 741.844)" fill="#b22234"/>
    <rect id="_x35_6" width="300" height="12.146" transform="translate(312 766.135)" fill="#b22234"/>
    <rect id="_x35_5" width="300" height="12.146" transform="translate(312 790.427)" fill="#b22234"/>
    <rect id="_x35_4" width="300" height="12.146" transform="translate(312 814.718)" fill="#b22234"/>
    <rect id="_x35_3" width="300" height="12.146" transform="translate(312 839.01)" fill="#b22234"/>
    <rect id="_x35_2" width="300" height="12.146" transform="translate(312 863.301)" fill="#b22234"/>
    <rect id="_x35_1" width="120" height="85.02" transform="translate(312 717.552)" fill="#3c3b6e"/>
    <path id="_x35_0" d="M317.638,724.454l2.859,2.077-1.092,3.361,2.858-2.077,2.859,2.077-1.092-3.361,2.858-2.077h-3.533l-1.092-3.36-1.092,3.36Z" fill="#fff"/>
    <path id="_x34_9" d="M337.533,724.454l2.858,2.077-1.092,3.361,2.859-2.077,2.859,2.077-1.092-3.361,2.858-2.077H343.25l-1.092-3.36-1.092,3.36Z" fill="#fff"/>
    <path id="_x34_8" d="M357.428,724.454l2.858,2.077-1.092,3.361,2.859-2.077,2.858,2.077-1.092-3.361,2.859-2.077h-3.533l-1.092-3.36-1.092,3.36Z" fill="#fff"/>
    <path id="_x34_7" d="M377.323,724.454l2.858,2.077-1.092,3.361,2.859-2.077,2.858,2.077-1.092-3.361,2.859-2.077h-3.534l-1.091-3.36-1.092,3.36Z" fill="#fff"/>
    <path id="_x34_6" d="M397.217,724.454l2.859,2.077-1.092,3.361,2.858-2.077,2.859,2.077-1.092-3.361,2.858-2.077h-3.533l-1.092-3.36-1.092,3.36Z" fill="#fff"/>
    <path id="_x34_5" d="M417.112,724.454l2.858,2.077-1.092,3.361,2.859-2.077,2.858,2.077-1.092-3.361,2.859-2.077h-3.533l-1.092-3.36-1.092,3.36Z" fill="#fff"/>
    <path id="_x34_4" d="M327.585,732.981l2.859,2.077-1.092,3.36,2.859-2.077,2.858,2.077-1.092-3.36,2.859-2.077H333.3l-1.091-3.361-1.092,3.361Z" fill="#fff"/>
    <path id="_x34_3" d="M347.48,732.981l2.859,2.077-1.092,3.36,2.858-2.077,2.859,2.077-1.092-3.36,2.858-2.077H353.2l-1.092-3.361-1.092,3.361Z" fill="#fff"/>
    <path id="_x34_2" d="M367.375,732.981l2.859,2.077-1.092,3.36L372,736.341l2.859,2.077-1.092-3.36,2.858-2.077h-3.533L372,729.62l-1.092,3.361Z" fill="#fff"/>
    <path id="_x34_1" d="M387.27,732.981l2.858,2.077-1.092,3.36,2.859-2.077,2.858,2.077-1.092-3.36,2.859-2.077h-3.533l-1.092-3.361-1.092,3.361Z" fill="#fff"/>
    <path id="_x34_0" d="M407.164,732.981l2.859,2.077-1.092,3.36,2.858-2.077,2.859,2.077-1.092-3.36,2.858-2.077h-3.533l-1.092-3.361-1.091,3.361Z" fill="#fff"/>
    <path id="_x33_9" d="M317.638,741.507l2.859,2.077-1.092,3.361,2.858-2.077,2.859,2.077-1.092-3.361,2.858-2.077h-3.533l-1.092-3.36-1.092,3.36Z" fill="#fff"/>
    <path id="_x33_8" d="M337.533,741.507l2.858,2.077-1.092,3.361,2.859-2.077,2.859,2.077-1.092-3.361,2.858-2.077H343.25l-1.092-3.36-1.092,3.36Z" fill="#fff"/>
    <path id="_x33_7" d="M357.428,741.507l2.858,2.077-1.092,3.361,2.859-2.077,2.858,2.077-1.092-3.361,2.859-2.077h-3.533l-1.092-3.36-1.092,3.36Z" fill="#fff"/>
    <path id="_x33_6" d="M377.323,741.507l2.858,2.077-1.092,3.361,2.859-2.077,2.858,2.077-1.092-3.361,2.859-2.077h-3.534l-1.091-3.36-1.092,3.36Z" fill="#fff"/>
    <path id="_x33_5" d="M397.217,741.507l2.859,2.077-1.092,3.361,2.858-2.077,2.859,2.077-1.092-3.361,2.858-2.077h-3.533l-1.092-3.36-1.092,3.36Z" fill="#fff"/>
    <path id="_x33_4" d="M417.112,741.507l2.858,2.077-1.092,3.361,2.859-2.077,2.858,2.077-1.092-3.361,2.859-2.077h-3.533l-1.092-3.36-1.092,3.36Z" fill="#fff"/>
    <path id="_x33_3" d="M327.831,750.062l2.858,2.077L329.6,755.5l2.858-2.077,2.859,2.077-1.092-3.361,2.858-2.076h-3.533l-1.092-3.361-1.092,3.361Z" fill="#fff"/>
    <path id="_x33_2" d="M347.726,750.062l2.858,2.077-1.092,3.36,2.859-2.077,2.858,2.077-1.092-3.361,2.859-2.076h-3.533l-1.092-3.361-1.092,3.361Z" fill="#fff"/>
    <path id="_x33_1" d="M367.621,750.062l2.858,2.077-1.092,3.36,2.859-2.077L375.1,755.5l-1.092-3.361,2.859-2.076h-3.534l-1.091-3.361-1.092,3.361Z" fill="#fff"/>
    <path id="_x33_0" d="M387.515,750.062l2.859,2.077-1.092,3.36,2.858-2.077L395,755.5l-1.092-3.361,2.858-2.076h-3.533L392.14,746.7l-1.092,3.361Z" fill="#fff"/>
    <path id="_x32_9" d="M407.41,750.062l2.858,2.077-1.092,3.36,2.859-2.077,2.858,2.077-1.092-3.361,2.859-2.076h-3.533l-1.092-3.361-1.092,3.361Z" fill="#fff"/>
    <path id="_x32_8" d="M317.94,758.517l2.859,2.076-1.092,3.361,2.858-2.077,2.859,2.077-1.092-3.361,2.858-2.076h-3.533l-1.092-3.361-1.092,3.361Z" fill="#fff"/>
    <path id="_x32_7" d="M337.835,758.517l2.858,2.076-1.092,3.361,2.859-2.077,2.858,2.077-1.091-3.361,2.858-2.076h-3.533l-1.092-3.361-1.092,3.361Z" fill="#fff"/>
    <path id="_x32_6" d="M357.73,758.517l2.858,2.076-1.092,3.361,2.859-2.077,2.858,2.077-1.092-3.361,2.859-2.076h-3.533l-1.092-3.361-1.092,3.361Z" fill="#fff"/>
    <path id="_x32_5" d="M377.624,758.517l2.859,2.076-1.092,3.361,2.858-2.077,2.859,2.077-1.092-3.361,2.859-2.076h-3.534l-1.092-3.361-1.091,3.361Z" fill="#fff"/>
    <path id="_x32_4" d="M397.519,758.517l2.858,2.076-1.091,3.361,2.858-2.077L405,763.954l-1.092-3.361,2.858-2.076h-3.533l-1.092-3.361-1.092,3.361Z" fill="#fff"/>
    <path id="_x32_3" d="M417.414,758.517l2.858,2.076-1.092,3.361,2.859-2.077,2.858,2.077-1.092-3.361,2.859-2.076h-3.533l-1.092-3.361-1.092,3.361Z" fill="#fff"/>
    <path id="_x32_2" d="M318.127,775.3l2.858,2.077-1.092,3.361,2.859-2.077,2.858,2.077-1.092-3.361,2.859-2.077h-3.533l-1.092-3.36-1.092,3.36Z" fill="#fff"/>
    <path id="_x32_1" d="M338.021,775.3l2.859,2.077-1.092,3.361,2.858-2.077,2.859,2.077-1.092-3.361,2.858-2.077h-3.533l-1.092-3.36-1.092,3.36Z" fill="#fff"/>
    <path id="_x32_0" d="M357.916,775.3l2.858,2.077-1.091,3.361,2.858-2.077,2.859,2.077-1.092-3.361,2.858-2.077h-3.533l-1.092-3.36-1.092,3.36Z" fill="#fff"/>
    <path id="_x31_9" d="M377.811,775.3l2.858,2.077-1.092,3.361,2.859-2.077,2.858,2.077-1.091-3.361,2.858-2.077h-3.533l-1.092-3.36-1.092,3.36Z" fill="#fff"/>
    <path id="_x31_8" d="M397.7,775.3l2.859,2.077-1.092,3.361,2.858-2.077,2.859,2.077-1.092-3.361,2.859-2.077h-3.534l-1.092-3.36-1.091,3.36Z" fill="#fff"/>
    <path id="_x31_7" d="M417.6,775.3l2.858,2.077-1.091,3.361,2.858-2.077,2.859,2.077-1.092-3.361,2.858-2.077h-3.533l-1.092-3.36-1.092,3.36Z" fill="#fff"/>
    <path id="_x31_6" d="M317.884,792.279l2.858,2.077-1.092,3.361,2.859-2.077,2.858,2.077-1.092-3.361,2.859-2.077H323.6l-1.091-3.36-1.092,3.36Z" fill="#fff"/>
    <path id="_x31_5" d="M337.778,792.279l2.859,2.077-1.092,3.361,2.858-2.077,2.859,2.077-1.092-3.361,2.858-2.077h-3.533l-1.092-3.36-1.092,3.36Z" fill="#fff"/>
    <path id="_x31_4" d="M357.673,792.279l2.858,2.077-1.091,3.361,2.858-2.077,2.859,2.077-1.092-3.361,2.858-2.077H363.39l-1.092-3.36-1.092,3.36Z" fill="#fff"/>
    <path id="_x31_3" d="M377.568,792.279l2.858,2.077-1.092,3.361,2.859-2.077,2.858,2.077-1.091-3.361,2.858-2.077h-3.533l-1.092-3.36-1.092,3.36Z" fill="#fff"/>
    <path id="_x31_2" d="M397.462,792.279l2.859,2.077-1.092,3.361,2.858-2.077,2.859,2.077-1.092-3.361,2.859-2.077h-3.534l-1.092-3.36L401,792.279Z" fill="#fff"/>
    <path id="_x31_1" d="M417.357,792.279l2.858,2.077-1.091,3.361,2.858-2.077,2.859,2.077-1.092-3.361,2.858-2.077h-3.533l-1.092-3.36-1.092,3.36Z" fill="#fff"/>
    <path id="_x31_0" d="M327.89,766.824l2.858,2.077-1.091,3.36,2.858-2.077,2.859,2.077-1.092-3.36,2.858-2.077h-3.533l-1.092-3.361-1.092,3.361Z" fill="#fff"/>
    <path id="_x39_" d="M347.785,766.824l2.858,2.077-1.092,3.36,2.859-2.077,2.858,2.077-1.091-3.36,2.858-2.077H353.5l-1.092-3.361-1.092,3.361Z" fill="#fff"/>
    <path id="_x38_" d="M367.68,766.824l2.858,2.077-1.092,3.36,2.859-2.077,2.858,2.077-1.092-3.36,2.859-2.077H373.4l-1.092-3.361-1.092,3.361Z" fill="#fff"/>
    <path id="_x37_" d="M387.574,766.824l2.859,2.077-1.092,3.36,2.858-2.077,2.859,2.077-1.092-3.36,2.858-2.077h-3.533l-1.092-3.361-1.092,3.361Z" fill="#fff"/>
    <path id="_x36_" d="M407.469,766.824l2.858,2.077-1.092,3.36,2.859-2.077,2.858,2.077-1.091-3.36,2.858-2.077h-3.533l-1.092-3.361L411,766.824Z" fill="#fff"/>
    <path id="_x35_" d="M327.831,783.777l2.859,2.077-1.092,3.361,2.858-2.077,2.859,2.077-1.092-3.361,2.858-2.077h-3.533l-1.092-3.36-1.092,3.36Z" fill="#fff"/>
    <path id="_x34_" d="M347.726,783.777l2.858,2.077-1.092,3.361,2.859-2.077,2.859,2.077-1.092-3.361,2.858-2.077h-3.533l-1.092-3.36-1.092,3.36Z" fill="#fff"/>
    <path id="_x33_" d="M367.621,783.777l2.858,2.077-1.092,3.361,2.859-2.077,2.858,2.077-1.092-3.361,2.859-2.077h-3.533l-1.092-3.36-1.092,3.36Z" fill="#fff"/>
    <path id="_x32_" d="M387.515,783.777l2.859,2.077-1.092,3.361,2.858-2.077L395,789.215l-1.092-3.361,2.858-2.077h-3.533l-1.092-3.36-1.092,3.36Z" fill="#fff"/>
    <path id="_x31_" d="M407.41,783.777l2.858,2.077-1.092,3.361,2.859-2.077,2.858,2.077-1.091-3.361,2.858-2.077h-3.533l-1.092-3.36-1.092,3.36Z" fill="#fff"/>
  </g>
</svg>
