<svg xmlns="http://www.w3.org/2000/svg" width="134.898" height="160.563" viewBox="0 0 134.898 160.563">
  <g id="_x33_51-ups" transform="translate(-62.765 -26.001)">
    <g id="Group_1094" data-name="Group 1094" transform="translate(62.765 26.001)">
      <path id="Path_533" data-name="Path 533" d="M62.765,41.029v79.38c0,37.264,26.915,48.584,67.449,66.155,40.39-17.572,67.449-28.819,67.449-66.155V41.029C155.871,18.893,96.4,23.205,62.765,41.029Z" transform="translate(-62.765 -26.001)" fill="#e29b2f"/>
      <path id="Path_534" data-name="Path 534" d="M202.973,149.174c0,31.119-19.117,40.821-61.233,59.4-42.223-18.614-61.268-28.28-61.268-59.4V103.752c36.761-33.707,83.223-35.934,122.5-32.269Z" transform="translate(-74.291 -54.766)" fill="#3d1901"/>
      <path id="Path_535" data-name="Path 535" d="M121.13,221.556c-1.869,1.294-11.715,4.708-11.715-6.828V177.357H97.665v36.869c0,26.915,28.819,18.362,35.179,14.014V177.357H121.13v44.2Z" transform="translate(-85.483 -124.526)" fill="#e29b2f"/>
      <path id="Path_536" data-name="Path 536" d="M215.644,178.1v76.469h11.751V229.877c8.768,2.623,25.764-.934,25.764-28.209C253.159,166.669,224.16,172.6,215.644,178.1Zm11.751,42.151V184.2c3.019-1.509,13.8-4.563,13.8,17.716C241.193,226.32,228.113,220.534,227.395,220.247Z" transform="translate(-162.281 -122.282)" fill="#e29b2f"/>
      <path id="Path_537" data-name="Path 537" d="M330.74,189.2c.036,17,18.542,15.272,18.758,25.3.216,8.444-10.924,8.266-18.255,1.761v10.816c13.008,7.726,29.431,2.91,29.9-12.038.611-18.507-19.441-16.746-19.189-26.3.216-7.294,11-7.367,17.428-.791v-10.2c-10.241-7.906-28.711-3.306-28.64,11.463Z" transform="translate(-237.203 -122.284)" fill="#e29b2f"/>
    </g>
  </g>
</svg>
