<svg xmlns="http://www.w3.org/2000/svg" width="299.357" height="92.791" viewBox="0 0 299.357 92.791">
  <g id="_x31_25-fedex" transform="translate(-22.568 -183.644)">
    <g id="Group_1093" data-name="Group 1093" transform="translate(22.568 183.644)">
      <path id="Path_530" data-name="Path 530" d="M169.539,183.644v39.468h-.231c-4.424-5.069-9.908-6.821-16.314-6.821-13.088,0-22.951,8.94-26.408,20.692-8.3-27.376-44.888-26.546-56.179-6.452V219.379H45.151V207.3H72.8V188.363H22.568v84.984H45.151V237.629H67.687a32.909,32.909,0,0,0-1.06,8.388c0,33.69,47.285,42.122,60,10.922H107.275c-6.775,9.632-21.108,4.1-21.108-6.728h39.4c1.7,14.056,12.628,26.224,27.7,26.224a19.285,19.285,0,0,0,16.084-8.574h.23v5.486h28.673v-89.7ZM86.766,237.813c2.812-12.12,19.219-11.8,21.431,0Zm70.7,22.538c-15.946,0-15.67-28.944,0-28.944C172.488,231.408,173.364,260.35,157.464,260.35Z" transform="translate(-22.568 -183.644)" fill="#442e8c"/>
      <path id="Path_531" data-name="Path 531" d="M346.933,273.219H296.156V183.661h51.1v16.244H317.079v18.234h29.853v15.115H316.756V257.3h30.177Z" transform="translate(-120.729 -183.65)" fill="#f47624"/>
      <path id="Path_532" data-name="Path 532" d="M414.07,276.643l-14.041,15.869H379.537l24.527-27.541-24.527-27.542h21.354L415.2,253.191l13.771-15.762h20.709l-24.42,27.435L450,292.511H428.217Z" transform="translate(-150.646 -202.942)" fill="#f47624"/>
    </g>
  </g>
</svg>
