<svg id="icons" xmlns="http://www.w3.org/2000/svg" width="15.31" height="13.944" viewBox="0 0 15.31 13.944">
  <g id="cart" transform="translate(0 0)">
    <path id="Path_411" data-name="Path 411" d="M14.826,13H3.691a.7.7,0,0,0-.7.835L3.97,18.15a1.422,1.422,0,0,0,1.392,1.113h7.724a1.422,1.422,0,0,0,1.392-1.113l.974-4.315A.652.652,0,0,0,14.826,13ZM8.563,16.479a.7.7,0,0,1-1.392,0V15.088a.7.7,0,1,1,1.392,0Zm2.784,0a.7.7,0,1,1-1.392,0V15.088a.7.7,0,1,1,1.392,0Z" transform="translate(-1.604 -5.319)" fill="#a5a5a5"/>
    <path id="Path_412" data-name="Path 412" d="M14.918,6.164H13.387l-1.322-3.34A1.389,1.389,0,0,0,9.49,3.867l.9,2.3H6.915l.9-2.3A1.389,1.389,0,0,0,5.245,2.823L3.923,6.164H2.392A1.4,1.4,0,0,0,1,7.556v.7a.657.657,0,0,0,.7.7H15.614a.657.657,0,0,0,.7-.7v-.7A1.4,1.4,0,0,0,14.918,6.164Z" transform="translate(-1 -1.962)" fill="#a5a5a5"/>
  </g>
</svg>
