<svg xmlns="http://www.w3.org/2000/svg" width="15.993" height="16.945" viewBox="0 0 15.993 16.945">
  <g id="_353416_home_icon" data-name="353416_home_icon" transform="translate(-8.501 -7.103)">
    <path id="Path_530" data-name="Path 530" d="M13.068,24.356V30.9a.3.3,0,0,0,.3.3h7.025V25.273h3.3V31.2h1.963a.3.3,0,0,0,.3-.3V24.356l-6.439-6.411Zm5.239,3.678H15.329V25.273h2.978Z" transform="translate(-3.013 -7.153)" fill="#36ae56"/>
    <path id="Path_531" data-name="Path 531" d="M24.245,14.85,16.5,7.1l-3.655,3.654V9.149a.681.681,0,0,0-1.361,0v2.969L8.751,14.85a.851.851,0,0,0,1.2,1.2L16.5,9.51l6.544,6.544a.851.851,0,0,0,1.2-1.2Z" transform="translate(0 0)" fill="#36ae56"/>
  </g>
</svg>
