<svg id="Shop" xmlns="http://www.w3.org/2000/svg" width="15.127" height="12.966" viewBox="0 0 15.127 12.966">
  <path id="Path_404" data-name="Path 404" d="M13.8,13.744a2.136,2.136,0,0,1-1.083-.3,2.092,2.092,0,0,1-2.158,0,2.094,2.094,0,0,1-2.161,0,2.092,2.092,0,0,1-2.158,0,2.1,2.1,0,0,1-2.157,0,2.142,2.142,0,0,1-1.087.3v5.943a1.08,1.08,0,0,0,1.08,1.08h6.483v-5.4H13.8v5.4h1.08a1.08,1.08,0,0,0,1.08-1.08V13.744a2.142,2.142,0,0,1-1.087-.3A2.137,2.137,0,0,1,13.8,13.744ZM8.4,18.607H5.161V15.365H8.4Z" transform="translate(-1.92 -7.802)" fill="#a5a5a5"/>
  <path id="Path_405" data-name="Path 405" d="M15.885,4.621H4V4.08A1.08,1.08,0,0,1,5.08,3H14.8a1.08,1.08,0,0,1,1.08,1.08Z" transform="translate(-2.379 -3)" fill="#a5a5a5"/>
  <g id="Group_949" data-name="Group 949" transform="translate(8.644 1.621)">
    <path id="Path_406" data-name="Path 406" d="M18.621,6H17V8.161a1.08,1.08,0,1,0,2.161,0Z" transform="translate(-17 -6)" fill="#a5a5a5"/>
  </g>
  <g id="Group_950" data-name="Group 950" transform="translate(11.885 1.621)">
    <path id="Path_407" data-name="Path 407" d="M24.621,6H23l1.08,2.161a1.08,1.08,0,1,0,2.161,0Z" transform="translate(-23 -6)" fill="#a5a5a5"/>
  </g>
  <g id="Group_951" data-name="Group 951" transform="translate(8.644 1.621)">
    <path id="Path_408" data-name="Path 408" d="M18.621,6H17V8.161a1.08,1.08,0,1,0,2.161,0Z" transform="translate(-17 -6)" fill="#a5a5a5"/>
  </g>
  <g id="Group_952" data-name="Group 952" transform="translate(4.322 1.621)">
    <path id="Path_409" data-name="Path 409" d="M9.54,6h1.621V8.161A1.08,1.08,0,0,1,9,8.161Z" transform="translate(-9 -6)" fill="#a5a5a5"/>
  </g>
  <g id="Group_953" data-name="Group 953" transform="translate(0 1.621)">
    <path id="Path_410" data-name="Path 410" d="M2.621,6H4.241L3.161,8.161A1.08,1.08,0,0,1,1,8.161Z" transform="translate(-1 -6)" fill="#a5a5a5"/>
  </g>
</svg>
