<?xml version="1.0" ?><!DOCTYPE svg  PUBLIC '-//W3C//DTD SVG 1.1//EN'  'http://www.w3.org/Graphics/SVG/1.1/DTD/svg11.dtd'><svg enable-background="new 0 0 128 128" id="Layer_1" version="1.1" viewBox="0 0 128 128" xml:space="preserve" xmlns="http://www.w3.org/2000/svg" xmlns:xlink="http://www.w3.org/1999/xlink"><path d="M33.82,107.39c0,0,2.87,5.97,4.65,7.86c4.03,4.25,48.05,2.84,65.98-10.04c3.9-2.8,4.88-4.82,4.25-15.92  c-1.73-30.45-14.44-71.68-25.5-75.53S33.82,107.39,33.82,107.39z" fill="#B59E68"/><path d="M32.2,107.69c1.23,1.86,2.47,5.14,6.27,7.56c4.16,2.65,46.6,1.59,64.53-11.3c3.9-2.8,4.88-4.82,4.25-15.92  c-1.73-30.45-13.51-71.95-24.7-75.6C71.42,8.79,32.2,107.69,32.2,107.69z" fill="#F2F2F2"/><g opacity="0.05"><path d="M98.11,94.36c-0.24,0.58-0.7,1.05-1.26,1.33c-21.51,10.99-50.06,12.16-60.3,12.51c8.43-0.2,39.08,0.74,61.86-10.9   c0.56-0.29,1.01-0.75,1.26-1.33c7.13-16.91,1.93-50.94-9.06-70.75C100.57,45.91,105.11,77.76,98.11,94.36z"/></g><path d="M32.2,107.69c0.5,1.2,1.73,5.89,7.83,8.42c-5.16-2.76-5.42-7.05-3.02-7.13  C38.56,108.93,31.83,106.04,32.2,107.69z" fill="#999999"/><path d="M34.62,112.2c-0.8-2.45,1.89-3.2,3.13-3.25c11.35-0.49,38.57-2.76,59.09-13.25  c0.56-0.29,1.01-0.75,1.26-1.33c8.63-20.47-0.65-66.46-14.54-81.29c-0.47-0.5-1.13-0.78-1.81-0.82  c-13.14-0.81-44.89,8.55-51.64,11.45c-0.87,0.37-1.48,1.17-1.61,2.1c-1.08,7.7-5.35,43.74,3.42,81.16  C32.22,108.21,32.77,110.47,34.62,112.2z" fill="#E0D3A9"/><path d="M30.5,26.81c0.13-0.94,0.74-1.73,1.61-2.1c4.06-1.74,17.25-6.63,29.98-10.08  c-13.29,2.79-27.68,7.25-31.98,9.08c-0.87,0.37-1.48,1.17-1.61,2.1c-0.88,6.28-3.88,31.43-0.19,60.81  C25.86,58.08,29.66,32.78,30.5,26.81z" fill="#FFFFFF" opacity="0.25"/><path d="M97.01,93.2c-0.24,0.58-0.7,1.05-1.26,1.33c-14.38,7.35-33.62,11.33-46.88,13.62  c13.41-1.34,32.57-4.58,47.98-12.45c0.56-0.29,1.01-0.75,1.26-1.33c5.52-13.09,2.89-37.82-3.35-57.84  C99.67,56.43,102.31,80.61,97.01,93.2z" fill="#FFFFFF" opacity="0.25"/><path d="M77.4,35.21c-7.5,1.06-23.32,3.79-34.55,9.09c-0.56,10.54-0.62,24.95,1.36,40.58  c8.54-0.7,28.16-2.99,40.91-9.79c-0.02-5.93-0.75-13.31-2.5-21.72C81.2,46.55,79.35,40.37,77.4,35.21z" fill="#D1C090"/><g opacity="0.3"><path d="M66.84,53.38c0.17,3.25-2.34,6.18-5.61,6.54c-3.28,0.36-5.97-1.99-5.99-5.24   c-0.01-3.25,2.54-6.18,5.67-6.54C64.03,47.78,66.68,50.13,66.84,53.38z" fill="#FFFFFF"/></g><g opacity="0.3"><path d="M51.94,77.18c-0.47-6.38,4.33-12.69,10.62-14.1c6.24-1.41,11.95,2.62,12.84,8.99" fill="#FFFFFF"/></g><ellipse cx="35.86" cy="90.7" fill="#998762" rx="3.05" ry="1.53" transform="matrix(0.9855 -0.1697 0.1697 0.9855 -14.8725 7.402)"/><path d="M29.74,96.22c-0.34,0.06-0.7,0.06-1.04,0.06c-2.24,0-4.1-1.25-4.63-3.1c-0.68-2.38,1.04-4.96,3.83-5.76  c0.55-0.16,1.11-0.24,1.66-0.24c2.24,0,4.1,1.25,4.63,3.1c0.06,0.22,0.11,0.45,0.13,0.67c0.08,0.8,3.1,0.39,3.09-0.56  c0-0.33-0.11-0.65-0.2-0.98c-1.16-4.05-5.71-6.29-10.17-5.02c-4.46,1.28-7.14,5.59-5.98,9.64c1.07,3.76,5.09,5.87,9.22,5.15  C30.08,98.15,29.91,97.25,29.74,96.22z" fill="#727373"/><path d="M30.28,99.19c-0.2-1.03-0.36-1.94-0.54-2.96c-0.34,0.06-0.7,0.06-1.04,0.06c-0.21,0-0.42-0.02-0.63-0.04  l0.29,3.08C28.99,99.34,29.63,99.3,30.28,99.19z" opacity="0.2"/><ellipse cx="32.52" cy="62.21" fill="#998762" rx="2.84" ry="1.43" transform="matrix(0.9855 -0.1697 0.1697 0.9855 -10.0855 6.4211)"/><ellipse cx="32.76" cy="37.49" fill="#998762" rx="2.73" ry="1.38" transform="matrix(0.9855 -0.1697 0.1697 0.9855 -5.8871 6.1043)"/><path d="M33.77,61.01c-1.08-3.77-5.32-5.86-9.47-4.67c-4.15,1.19-6.65,5.2-5.57,8.97c0.96,3.36,4.44,5.3,8.13,4.85  c-0.05-0.95-0.09-1.88-0.13-2.81c-0.29,0.04-0.6,0.05-0.88,0.05c-2.08,0-3.82-1.16-4.31-2.89c-0.63-2.21,0.97-4.62,3.56-5.36  c0.51-0.15,1.03-0.22,1.55-0.22c2.08,0,3.82,1.16,4.31,2.89c0.06,0.21,0.1,0.42,0.12,0.63c0.07,0.75,2.88,0.36,2.88-0.52  C33.96,61.62,33.85,61.32,33.77,61.01z" fill="#727373"/><path d="M26.73,67.36c-0.29,0.04-0.59,0.05-0.88,0.05c0,0,0,0,0,0c-0.2,0-0.39-0.02-0.58-0.04l-1.19,2.69  c0.89,0.19,1.83,0.24,2.79,0.12C26.81,69.22,26.77,68.28,26.73,67.36C26.73,67.36,26.73,67.36,26.73,67.36z" opacity="0.2"/><path d="M33.97,36.34c-1.04-3.63-5.13-5.65-9.13-4.5s-6.41,5.02-5.37,8.65c0.88,3.08,3.96,4.93,7.32,4.73  c0.04-0.94,0.09-1.85,0.14-2.73c-0.2,0.01-0.4,0.02-0.6,0.02c-2.01,0-3.68-1.12-4.16-2.78c-0.61-2.13,0.93-4.45,3.44-5.17  c0.49-0.14,1-0.21,1.49-0.21c2.01,0,3.68,1.12,4.16,2.78c0.06,0.2,0.1,0.4,0.11,0.61c0.07,0.72,2.78,0.35,2.78-0.5  C34.15,36.92,34.05,36.63,33.97,36.34z" fill="#727373"/><path d="M26.93,42.48C26.93,42.48,26.93,42.48,26.93,42.48c-0.2,0.01-0.4,0.02-0.6,0.02c0,0,0,0,0,0  c-0.19,0-0.38-0.02-0.56-0.04l-1.27,2.56c0.73,0.17,1.5,0.24,2.29,0.2C26.83,44.28,26.88,43.36,26.93,42.48z" opacity="0.2"/></svg>