<svg id="XMLID_18_" xmlns="http://www.w3.org/2000/svg" width="22.588" height="13.69" viewBox="0 0 22.588 13.69">
  <path id="XMLID_181_" d="M610.69,327.027V325.99h5.316L612.9,322.1h-5.4v9.933h1.61a2.2,2.2,0,0,0,4.346,0h2.861v-5.005Zm.594,5.8a1.169,1.169,0,0,1-1.167-1.167v-.013a1.167,1.167,0,0,1,2.334,0v.013A1.169,1.169,0,0,1,611.284,332.831Z" transform="translate(-593.729 -320.181)" fill="#a5a5a5"/>
  <path id="XMLID_185_" d="M88.295,248.1H77.517a1.018,1.018,0,0,0-1.017,1.017v9.821a1.018,1.018,0,0,0,1.017,1.017h2.337a2.2,2.2,0,0,0,4.346,0h5.034V249.039A.94.94,0,0,0,88.295,248.1Zm-6.268,12.65a1.169,1.169,0,0,1-1.167-1.167v-.013a1.167,1.167,0,0,1,2.334,0v.013A1.169,1.169,0,0,1,82.026,260.75Z" transform="translate(-76.5 -248.1)" fill="#a5a5a5"/>
</svg>
