<svg id="profile" xmlns="http://www.w3.org/2000/svg" width="14.614" height="13.076" viewBox="0 0 14.614 13.076">
  <path id="Path_413" data-name="Path 413" d="M7.846,11.691a3.846,3.846,0,1,0-2.72-1.127A3.834,3.834,0,0,0,7.846,11.691Z" transform="translate(-3.231 -4)" fill="#a5a5a5"/>
  <path id="Path_414" data-name="Path 414" d="M7.615,19.615c2.706,0,4.615-.769,4.615-1.538C12.23,16.538,10.419,15,7.615,15,4.731,15,3,16.538,3,18.077,3,18.846,4.731,19.615,7.615,19.615Z" transform="translate(-3 -6.539)" fill="#a5a5a5"/>
  <path id="Path_415" data-name="Path 415" d="M19.384,11.307H17.846V9.769a.769.769,0,1,0-1.538,0v1.538H14.769a.769.769,0,1,0,0,1.538h1.538v1.538a.769.769,0,0,0,1.538,0V12.846h1.538a.769.769,0,1,0,0-1.538Z" transform="translate(-5.539 -5.154)" fill="#a5a5a5"/>
</svg>
