<?xml version="1.0" ?><svg id="Layer_1" style="enable-background:new 0 0 1024 1024;" version="1.1" viewBox="0 0 1024 1024" xml:space="preserve" xmlns="http://www.w3.org/2000/svg" xmlns:xlink="http://www.w3.org/1999/xlink"><g id="XMLID_18_"><path d="M730.5,512.1v-40h205l-119.9-150H607.5v383h62.1c6.8,40.1,41.8,70.8,83.8,70.8s77-30.6,83.8-70.8h110.3   v-193H730.5z M753.4,735.9c-24.8,0-45-20.2-45-45v-0.1l0-0.4c0.3-24.5,20.5-44.5,45-44.5c24.5,0,44.7,20,45,44.5l0,0.5   C798.4,715.7,778.2,735.9,753.4,735.9z" id="XMLID_181_"/><path d="M531.3,248.1H115.7c-21.6,0-39.2,17.6-39.2,39.2V666c0,21.6,17.6,39.2,39.2,39.2h90.1   c6.8,40.1,41.8,70.8,83.8,70.8s77-30.6,83.8-70.8h194.1V284.3C567.5,264.4,551.3,248.1,531.3,248.1z M289.6,735.9   c-24.8,0-45-20.2-45-45v-0.1l0-0.4c0.3-24.5,20.5-44.5,45-44.5s44.7,20,45,44.5l0,0.5C334.6,715.7,314.4,735.9,289.6,735.9z" id="XMLID_185_"/></g><g id="XMLID_1_"/><g id="XMLID_2_"/><g id="XMLID_3_"/><g id="XMLID_4_"/><g id="XMLID_5_"/></svg>