<svg xmlns="http://www.w3.org/2000/svg" width="18.968" height="15.699" viewBox="0 0 18.968 15.699">
  <g id="ShippingFrom" transform="translate(-40 -109)">
    <path id="Path_382" data-name="Path 382" d="M38.727,66H26.479a.892.892,0,0,0-.9.548c-.45,1.377-1.6,4.895-1.692,5.158-.167.474.083,1.451,1.391,1.451h8.3Z" transform="translate(16.165 51.542)" fill="#6a6a6a"/>
    <path id="Path_383" data-name="Path 383" d="M34.521,79.637l-9.03,3.677a1.439,1.439,0,0,0,.979.332H42.729a1.182,1.182,0,0,0,1.317-1.4C40.149,81.154,34.521,79.637,34.521,79.637Z" transform="translate(14.893 41.053)" fill="#6a6a6a"/>
    <path id="Path_384" data-name="Path 384" d="M73.632,66.5,66.673,69.34s7.232,2.511,9.075,3.136a1.187,1.187,0,0,0-.042-.383c-.636-1.914-1.655-5.055-1.711-5.22A.75.75,0,0,0,73.632,66.5Z" transform="translate(-16.782 51.154)" fill="#6a6a6a"/>
    <path id="Path_385" data-name="Path 385" d="M24.209,72.816l16.472-6.7A1.565,1.565,0,0,0,40.21,66H38.722L23.854,71.772A1.079,1.079,0,0,0,24.209,72.816Z" transform="translate(16.17 51.542)" fill="#6a6a6a"/>
    <path id="Path_386" data-name="Path 386" d="M61.247,79.169s9.856,3.381,9.914,3.4a1.087,1.087,0,0,0,.414-.861l-8.985-3.079Z" transform="translate(-12.609 41.831)" fill="#f5f7fa"/>
    <path id="Path_387" data-name="Path 387" d="M50.809,29A3.809,3.809,0,0,0,47,32.809c0,1,1,2.637,1.9,4.165l1.9,3.222S51.895,38.331,53,36.388c.774-1.358,1.616-2.706,1.616-3.578A3.809,3.809,0,0,0,50.809,29Zm0,5.079a1.039,1.039,0,1,1,1.039-1.039A1.039,1.039,0,0,1,50.809,34.079Z" transform="translate(-1.651 80)" fill="#ef5362"/>
  </g>
</svg>
