<?xml version="1.0" ?><svg data-name="Your Icons" id="Your_Icons" viewBox="0 0 48 48" xmlns="http://www.w3.org/2000/svg"><title/><path d="M41.21,22l-1.12-2a3.82,3.82,0,0,0-3.34-2H31.41A7.9,7.9,0,0,0,32,15a8,8,0,0,0-15.93-1H8a4,4,0,0,0-4,4V33a4,4,0,0,0,4,4H8.1a5,5,0,0,0,9.8,0H30.1a5,5,0,0,0,9.8,0h.28A3.82,3.82,0,0,0,44,33.18V28a3.73,3.73,0,0,0-.48-1.85ZM40,24l1.1,2,.56,1H35a1,1,0,0,1-1-1V25a1,1,0,0,1,1-1ZM20.27,10.3A5.94,5.94,0,0,1,24,9a6,6,0,0,1,6,6,5.87,5.87,0,0,1-.83,3,5.6,5.6,0,0,1-.51.76h0a5.2,5.2,0,0,1-.65.68h0a5.92,5.92,0,0,1-.91.67l-.21.11a5.85,5.85,0,0,1-.84.39,6.13,6.13,0,0,1-.89.26h-.09A6.14,6.14,0,0,1,24,21q-.3,0-.6,0h-.1l-.49-.08h0a6,6,0,0,1-3-1.58l-.2-.22a2.09,2.09,0,0,1-.2-.22,1.09,1.09,0,0,1-.13-.17,3.4,3.4,0,0,1-.23-.3,2.26,2.26,0,0,1-.16-.26c-.05-.08-.1-.16-.14-.24a2.7,2.7,0,0,1-.17-.34l-.09-.19c-.05-.12-.1-.25-.14-.38s-.05-.12-.07-.17-.07-.27-.1-.41,0-.12-.05-.18,0-.28-.06-.43l0-.17a5.74,5.74,0,0,1,0-1.48A6,6,0,0,1,20.27,10.3ZM13,39a3,3,0,0,1-2.94-2.45A2.51,2.51,0,0,1,10,36a3,3,0,0,1,6,0,2.51,2.51,0,0,1-.06.55A3,3,0,0,1,13,39Zm4.9-4h0l0-.09a5.16,5.16,0,0,0-.24-.79l-.16-.32a3.67,3.67,0,0,0-.26-.48L17,33a3.79,3.79,0,0,0-.32-.38,2.65,2.65,0,0,0-.29-.29L16,32a4,4,0,0,0-.34-.23l-.46-.25-.35-.16a4.75,4.75,0,0,0-.57-.18L14,31.1a4.56,4.56,0,0,0-1.9,0l-.31.08a4.75,4.75,0,0,0-.57.18l-.35.16-.46.25A4,4,0,0,0,10,32l-.38.32a2.65,2.65,0,0,0-.29.29A3.79,3.79,0,0,0,9,33l-.24.33a3.67,3.67,0,0,0-.26.48c0,.11-.11.21-.16.32a5.16,5.16,0,0,0-.24.79l0,.09H8a2,2,0,0,1-2-2V18a2,2,0,0,1,2-2h8.09l0,.14a7.26,7.26,0,0,0,.22,1,1.94,1.94,0,0,0,.05.2,10,10,0,0,0,.4,1l.14.27a8.24,8.24,0,0,0,.57.95l.14.18a7.67,7.67,0,0,0,.79.92,7,7,0,0,0,.58.51l.36.27c.08.05.16.12.25.17s.38.24.57.35l.08,0a6.27,6.27,0,0,0,.64.3l.05,0c.21.09.43.16.65.23l.08,0,.62.16.14,0q.3.06.6.09l.18,0a7.14,7.14,0,0,0,.8,0,7.3,7.3,0,0,0,.94-.06l.24,0c.24,0,.47-.08.7-.13l.12,0V27H11a1,1,0,0,0,0,2H26v6ZM35,39a3,3,0,0,1-2.94-2.45A2.51,2.51,0,0,1,32,36a3,3,0,0,1,6,0,2.51,2.51,0,0,1-.06.55A3,3,0,0,1,35,39Zm7-5.82A1.83,1.83,0,0,1,40.18,35H39.9l0-.09a5.16,5.16,0,0,0-.24-.79l-.16-.32a3.67,3.67,0,0,0-.26-.48L39,33a3.79,3.79,0,0,0-.32-.38,2.65,2.65,0,0,0-.29-.29L38,32a4,4,0,0,0-.34-.23l-.46-.25-.35-.16a4.75,4.75,0,0,0-.57-.18L36,31.1a4.56,4.56,0,0,0-1.9,0l-.31.08a4.75,4.75,0,0,0-.57.18l-.35.16-.46.25A4,4,0,0,0,32,32l-.38.32a2.65,2.65,0,0,0-.29.29A3.79,3.79,0,0,0,31,33l-.24.33a3.67,3.67,0,0,0-.26.48l-.16.32a5.16,5.16,0,0,0-.24.79l0,.09H28V21.92h0A8,8,0,0,0,30.24,20h6.51a1.82,1.82,0,0,1,1.59.94L38.93,22H35a3,3,0,0,0-3,3v1a3,3,0,0,0,3,3h7Z"/><path d="M22.58,13.57a2.06,2.06,0,0,1,2.83,0,1.13,1.13,0,0,0,.18.12l-.34.34c-.41.41-.29,1,.17,1h.1l1.55-.23a.88.88,0,0,0,.69-.69L28,12.52a.42.42,0,0,0-.43-.52.79.79,0,0,0-.54.25l-.09.09a1,1,0,0,0-.12-.19,4,4,0,0,0-5.65,0,1,1,0,0,0,1.41,1.42Z"/><path d="M20.43,18a.79.79,0,0,0,.54-.25l.09-.09a.83.83,0,0,0,.11.15,4,4,0,0,0,5.65,0,1,1,0,1,0-1.41-1.41,2.06,2.06,0,0,1-2.83,0,.65.65,0,0,0-.15-.1l.32-.33c.41-.41.29-1-.17-1h-.1l-1.55.23a.88.88,0,0,0-.69.69L20,17.48A.42.42,0,0,0,20.43,18Z"/></svg>