<?xml version="1.0" encoding="utf-8"?>
<!-- Generator: Adobe Illustrator 23.0.5, SVG Export Plug-In . SVG Version: 6.00 Build 0)  -->
<svg version="1.1" id="Layer_1" xmlns="http://www.w3.org/2000/svg" xmlns:xlink="http://www.w3.org/1999/xlink" x="0px" y="0px"
	 viewBox="0 0 1024 1024" style="enable-background:new 0 0 1024 1024;" xml:space="preserve">
<style type="text/css">
	.st0{fill:#FFD552;}
	.st1{fill:#F68F6F;}
	.st2{fill:#4A555F;}
	.st3{fill:#E0E0E0;}
</style>
<g>
	<path class="st0" d="M443.2,392h150.5v25.1H443.2V392z"/>
	<path class="st1" d="M476.3,369.4l1.1-2.7c0.6-1.3,0.8-2.8,0.8-4.2c0-2.1-0.6-4.1-1.5-5.8l-1.8-3h126.9c5.4,0,9.8,4.3,9.8,9.8v6.1
		L476.3,369.4L476.3,369.4z M420.5,369.4l-1-2.7c-0.6-1.3-0.8-2.8-0.8-4.2c0-2.1,0.6-4.1,1.5-5.8l1.8-3c-5.4-0.1-9.1,4.2-9.1,9.6
		v6.1H420.5z"/>
	<path class="st2" d="M406.9,373.2h210.2v3H406.9V373.2z M429.7,369.9c-4.2,0-7.6-3.4-7.6-7.6s3.4-7.6,7.6-7.6s7.6,3.4,7.6,7.6
		S433.9,369.9,429.7,369.9L429.7,369.9z M429.7,357.6c-2.5,0-4.6,2.1-4.6,4.6s2.1,4.6,4.6,4.6s4.6-2.1,4.6-4.6
		S432.2,357.6,429.7,357.6z M448.1,369.9c-4.2,0-7.6-3.4-7.6-7.6s3.4-7.6,7.6-7.6c4.2,0,7.6,3.4,7.6,7.6
		C455.8,366.5,452.3,369.9,448.1,369.9L448.1,369.9z M448.1,357.6c-2.5,0-4.6,2.1-4.6,4.6s2.1,4.6,4.6,4.6c2.5,0,4.6-2.1,4.6-4.6
		C452.8,359.7,450.7,357.6,448.1,357.6L448.1,357.6z M466.6,369.9c-4.2,0-7.6-3.4-7.6-7.6s3.4-7.6,7.6-7.6s7.6,3.4,7.6,7.6
		S470.8,369.9,466.6,369.9z M466.6,357.6c-2.5,0-4.6,2.1-4.6,4.6s2.1,4.6,4.6,4.6s4.6-2.1,4.6-4.6S469.1,357.6,466.6,357.6z"/>
	<path class="st2" d="M601.8,518.1h-14.4l4.1-16.9L553,518.1H422.2c-9.3,0-16.8-7.6-16.8-16.7V363.2c0-2.8,0.7-5.6,2-8
		c0.8-1.4,1.7-2.7,2.9-3.9c0.8-0.8,1.5-1.4,2.5-2.1c0.9-0.6,1.9-1.1,2.8-1.5c2.1-0.8,4.3-1.2,6.6-1.2h179.7c2.3,0,4.4,0.5,6.5,1.3
		c0.9,0.4,1.9,0.9,2.8,1.5c0.9,0.7,1.8,1.3,2.5,2.1c1.1,1.1,2.2,2.5,2.9,3.9c1.3,2.5,2,5.2,2,8v138
		C618.6,510.5,611.1,518.1,601.8,518.1L601.8,518.1z M591.3,515h10.6c7.6,0,13.8-6.1,13.8-13.8v-138c0-2.3-0.6-4.5-1.7-6.5
		c-0.7-1.1-1.4-2.2-2.4-3.1c-0.6-0.6-1.3-1.1-2.1-1.7c-0.8-0.5-1.5-0.9-2.4-1.2c-1.7-0.8-3.5-1.1-5.4-1.1H422.2
		c-1.9,0-3.7,0.4-5.4,1.1c-0.8,0.4-1.6,0.8-2.4,1.2s-1.4,1-2,1.7c-0.9,0.9-1.8,2-2.4,3.2c-1,2-1.7,4.2-1.7,6.5v138
		c0,7.6,6.1,13.8,13.8,13.8h130.2l43.5-19.2L591.3,515z"/>
	<path class="st2" d="M526.5,555.2c-0.2,0-0.4,0-34.3-10.9v-2.8l100.9-44.3l1.6,2.5l-67,55.1L526.5,555.2L526.5,555.2z M497.1,542.6
		c10.6,3.4,25.8,8.2,29.3,9.3l58-47.7L497.1,542.6L497.1,542.6z"/>
	<path class="st2" d="M528.1,588.2h-2.8v-34.6l0.6-1.1l67-55.1l2.1,2.2l-50.4,57.3L528.1,588.2z M528.2,554.3v26.7l13.6-25.9
		l0.2-0.3l38.1-43.3L528.2,554.3L528.2,554.3z"/>
	<path class="st2" d="M577.6,565.3l-34.8-7.8L542,555l50.6-57.4l2.6,1.3l-16,66.7L577.6,565.3L577.6,565.3z M545.9,555l30.9,7
		l14-57.9L545.9,555L545.9,555z"/>
	<path class="st2" d="M528.1,588.2h-2.6l16.4-33l1.7-0.8l9.9,2.3l0.8,2.5L528.1,588.2z M543.9,557.6l-10.4,19.7l16.6-18.3
		L543.9,557.6z"/>
	<path class="st2" d="M508.4,571.8h-3v-3h3V571.8z M502.4,571.8h-3v-3h3V571.8z M496.4,571.8h-3v-3h3V571.8z M490.4,571.8h-3v-3h3
		V571.8z M484.3,571.8h-3v-3h3V571.8z M478.3,571.8h-3v-3h3V571.8z M472.2,571.8h-3v-3h3V571.8z M466.2,571.8h-3v-3h3V571.8z
		 M460.2,571.8h-0.4c-0.9,0-1.9-0.1-2.7-0.2l0.3-3c0.8,0.1,1.6,0.1,2.5,0.1h0.4V571.8L460.2,571.8z M453.8,571.1
		c-1-0.3-2.1-0.6-3-0.9l1-2.8c0.8,0.4,1.8,0.6,2.7,0.8L453.8,571.1z M447.9,568.9c-0.9-0.5-1.9-1-2.7-1.7l1.7-2.5
		c0.8,0.6,1.6,1,2.4,1.5L447.9,568.9L447.9,568.9z M442.7,565.2l-2.3-2.3l2.3-2c0.6,0.8,1.2,1.4,2,2L442.7,565.2z M438.5,560.4
		c-0.6-0.8-1.1-1.8-1.6-2.7l2.7-1.3c0.4,0.8,0.8,1.7,1.4,2.5L438.5,560.4L438.5,560.4z M435.7,554.6c-0.4-1-0.7-2.1-0.8-3.1l2.9-0.6
		c0.2,0.9,0.5,1.8,0.8,2.7L435.7,554.6L435.7,554.6z M434.4,548.4c-0.1-0.7-0.1-1.3-0.1-2v-1.1h3v1.1c0,0.6,0,1.2,0.1,1.8
		L434.4,548.4L434.4,548.4z M437.3,542.2h-3v-3h3V542.2z M437.3,536.2h-3v-3h3V536.2z M437.3,530.2h-3v-3h3V530.2z M437.3,524.1h-3
		v-3h3V524.1z M437.3,518.1h-3v-3h3V518.1z M437.3,512h-3v-3h3V512z M437.3,506h-3v-3h3V506z M437.3,499.9h-3v-3h3V499.9z
		 M437.3,494h-3v-3h3V494L437.3,494z M437.3,487.9h-3v-3h3V487.9z M437.3,481.9h-3v-3h3V481.9z M437.3,475.9h-3v-3h3V475.9z
		 M437.3,469.8h-3v-3h3V469.8z M437.3,463.8h-3v-3h3V463.8L437.3,463.8z M437.3,457.7h-3v-0.3c0-0.9,0.1-2,0.2-2.9l3,0.4
		c-0.1,0.8-0.2,1.7-0.2,2.5V457.7z M438,452.2l-2.9-0.8c0.3-1,0.6-2.1,0.9-3l2.8,1C438.4,450.3,438.2,451.2,438,452.2z M440,446.9
		l-2.6-1.4c0.5-0.9,1-1.9,1.7-2.7l2.5,1.8C440.9,445.3,440.4,446,440,446.9z M443.3,442.2l-2.2-2.1c0.8-0.8,1.5-1.5,2.3-2.2l2,2.3
		C444.6,440.9,443.9,441.6,443.3,442.2z M447.6,438.7l-1.7-2.5c0.8-0.6,1.8-1.1,2.8-1.6l1.3,2.7
		C449.2,437.7,448.4,438.1,447.6,438.7L447.6,438.7z M452.6,436.2l-0.9-2.8c1-0.4,2.1-0.7,3.1-0.8l0.6,2.9
		C454.4,435.6,453.6,435.9,452.6,436.2z M458.2,435.1l-0.2-3c0.6,0,1.2-0.1,1.9-0.1h1.3v3h-1.3C459.2,435.1,458.7,435.1,458.2,435.1
		z M568.6,435.1h-1.9v-3h1.9c0.3,0,0.6,0,0.8-0.1l0.4,3C569.4,435,568.9,435.1,568.6,435.1L568.6,435.1z M563.6,435.1h-3v-3h3V435.1
		z M557.6,435.1h-3v-3h3V435.1z M551.6,435.1h-3v-3h3V435.1z M545.5,435.1h-3v-3h3V435.1z M539.5,435.1h-3v-3h3V435.1z M533.4,435.1
		h-3v-3h3V435.1z M527.4,435.1h-3v-3h3V435.1z M521.3,435.1h-3v-3h3V435.1z M515.4,435.1h-3v-3h3V435.1z M509.4,435.1h-3v-3h3
		L509.4,435.1L509.4,435.1z M503.3,435.1h-3v-3h3V435.1z M497.3,435.1h-3v-3h3V435.1z M491.2,435.1h-3v-3h3V435.1z M485.2,435.1h-3
		v-3h3V435.1z M479.1,435.1h-3v-3h3L479.1,435.1L479.1,435.1z M473.1,435.1h-3v-3h3V435.1z M467.1,435.1h-3v-3h3V435.1z
		 M573.2,433.8l-1.4-2.6c0.8-0.4,1.4-0.9,1.9-1.5l2.3,2C575.2,432.6,574.2,433.3,573.2,433.8z M577.8,428.7l-2.8-1
		c0.3-0.8,0.5-1.6,0.5-2.5h3C578.5,426.4,578.2,427.5,577.8,428.7z M578.5,422.1h-3v-3h3V422.1z M578.5,416.1h-3v-0.6
		c0-0.7-0.1-1.3-0.3-2l2.9-0.8c0.3,0.9,0.4,1.9,0.4,2.8V416.1z M574,411.4c-0.5-0.7-1.1-1.2-1.8-1.7l1.6-2.5c1,0.7,1.9,1.4,2.6,2.4
		L574,411.4z M570,408.8c-0.5-0.1-0.9-0.2-1.4-0.2h-1.3v-3h1.3c0.7,0,1.3,0.1,2,0.2L570,408.8z M564.2,408.6h-3v-3h3V408.6z
		 M558.3,408.6h-3v-3h3V408.6z M552.2,408.6h-3v-3h3V408.6z M546.2,408.6h-3v-3h3V408.6L546.2,408.6z M540.1,408.6h-3v-3h3V408.6z
		 M534.1,408.6h-3v-3h3V408.6z M528.1,408.6h-3v-3h3V408.6z M522,408.6h-3v-3h3V408.6z"/>
	<path class="st2" d="M454.3,450.7h54.8v3h-54.8V450.7z"/>
	<path class="st2" d="M454.3,470.9h54.8v3h-54.8V470.9z"/>
	<path class="st2" d="M454.3,491h54.8v3h-54.8V491z"/>
	<path class="st3" d="M533.4,455.3h39.3V487h-39.3V455.3z"/>
	<path class="st2" d="M580.9,494h-55.7v-45.6h55.7V494z M528.2,491h49.7v-39.6h-49.7V491L528.2,491z"/>
	<path class="st2" d="M578.4,448.8l1.9,2.3l-52.6,42.6l-1.9-2.3L578.4,448.8z"/>
	<path class="st2" d="M527.7,448.7l52.6,42.6l-1.9,2.3L525.8,451L527.7,448.7z"/>
</g>
</svg>
