<svg xmlns="http://www.w3.org/2000/svg" width="11.471" height="14.486" viewBox="0 0 11.471 14.486">
  <g id="ShippingTo" transform="translate(-4.996)">
    <path id="Path_452" data-name="Path 452" d="M29.145,12.714V14.9h2.2C31.255,12.427,29.145,12.714,29.145,12.714Z" transform="translate(-16.861 -8.87)" fill="#6a6a6a"/>
    <path id="Path_453" data-name="Path 453" d="M16.464,5.734A5.734,5.734,0,1,0,5,5.734c0,.009,0,.018,0,.027a3.883,3.883,0,0,0,.028.551c0,.01,0,.021,0,.031.014.122.035.261.063.415.016.088.033.175.053.261.359,1.6,1.565,4.5,5.583,7.464v0h0v0c4.072-3.005,5.257-5.939,5.6-7.528.008-.04.018-.08.025-.121A4.67,4.67,0,0,0,16.464,5.734Zm-8.43,3.32a.633.633,0,1,1,.633-.632A.633.633,0,0,1,8.034,9.054Zm2.976-.632H9.241a1.214,1.214,0,0,0,.014-.136,1.191,1.191,0,1,0-2.381,0,1.147,1.147,0,0,0,.014.136H6.27V3.762A1.742,1.742,0,0,1,7.549,1.991a3.537,3.537,0,0,1,.724-.052h2.737V8.422Zm2.435.608a.633.633,0,1,1,.633-.633A.633.633,0,0,1,13.444,9.03Zm1.748-.6h-.527a1.252,1.252,0,0,0-2.5,0h-.527V3.045h.284a5.024,5.024,0,0,1,.942.1l.085.022c.034.009.069.017.1.027a2.6,2.6,0,0,1,1.225.758A3.8,3.8,0,0,1,15.179,6.3h.014V8.426Z" fill="#6a6a6a"/>
  </g>
</svg>
